<?xml version="1.0" encoding="utf-8"?>
<!-- Generator: Adobe Illustrator 18.0.0, SVG Export Plug-In . SVG Version: 6.00 Build 0)  -->
<!DOCTYPE svg PUBLIC "-//W3C//DTD SVG 1.1//EN" "http://www.w3.org/Graphics/SVG/1.1/DTD/svg11.dtd">
<svg version="1.1" id="Layer_1" xmlns="http://www.w3.org/2000/svg" xmlns:xlink="http://www.w3.org/1999/xlink" x="0px" y="0px"
	 viewBox="0 0 64 64" enable-background="new 0 0 64 64" xml:space="preserve">
<g>
	<g>
		<g>
			<g>
				<path d="M36,18.3v-2.2c0-2.2-1.8-4-4-4s-4,1.8-4,4v2.2C15.4,20.1,5.5,30.3,4.2,43h55.7C58.5,30.3,48.6,20.1,36,18.3z M35.3,23.2
					C37.1,22.9,50.9,26.5,54,39L47,39.1C44.7,30,35.3,23.2,35.3,23.2z"/>
			</g>
		</g>
	</g>
	<g>
		<g>
			<g>
				<polyline points="0,47 2,53 62,53 64,47 				"/>
			</g>
		</g>
	</g>
	<g>
		<g>
			<g>
				<line x1="4.2" y1="47" x2="59.8" y2="47"/>
			</g>
		</g>
	</g>
	<g>
		<g>
			<g>
				
					<line fill="none" stroke="#000000" stroke-width="0" stroke-linecap="round" stroke-linejoin="round" x1="0" y1="47" x2="4.2" y2="47"/>
			</g>
		</g>
	</g>
	<g>
		<g>
			<g>
				<line x1="59.8" y1="47" x2="64" y2="47"/>
			</g>
		</g>
	</g>
</g>
</svg>
